<?xml version="1.0" encoding="UTF-8"?>
<svg id="uuid-3a0616b6-b6e9-4ca9-93c8-b5087158226a" data-name="Layer 2" xmlns="http://www.w3.org/2000/svg" width="701.8" height="1764.56" viewBox="0 0 701.8 1764.56">
  <defs>
    <style>
      .uuid-dea8a93a-8ddf-4b80-8e53-fed3604b87e3 {
        fill: #000003;
      }
    </style>
  </defs>
  <g id="uuid-e4674cc2-2384-4ac5-b03b-990c3998201e" data-name="Layer 2">
    <g>
      <path class="uuid-dea8a93a-8ddf-4b80-8e53-fed3604b87e3" d="M700.34,887.02c-5.41-38.22-23.83-70.85-49.55-99.05-20.8-22.8-45.03-40.39-71.29-56.98l-106.79-67.49c-63.38-40.06-126.63-75.47-168.6-140.82-15.95-24.83-25.51-51.96-32.33-80.79-12.71-53.71-13.28-108.81-3.83-163.06.97-5.58,4.68-10.88,2.42-16.52-82.84,91.6-97.64,228.99-34.35,333.51,15.16,25.03,32.45,47.58,53.78,67.58,28.36,26.6,57.4,49.87,90.62,70.24l80.32,49.26c-8.28-.1-16.69.7-25.1,2.48-18.61,3.92-34.99,11.52-51.45,21-14.62,9.2-27.9,19.09-41.2,30.11-3.5,2.9-7.8,2.58-11.13-.37-35.21-31.19-75.23-57.01-124-52.51-31.85,2.94-59.93,20.76-73.23,50.29-12.93,28.72-11.45,62.6,3.97,89.89,14.29,25.29,40.48,40.7,69.25,39.56,31.45-1.24,68.27-31.17,92.52-52.53l60.71-53.46c19.48-17.16,39.97-31.76,63.39-42.77,23.99-11.28,49.03-14.27,72.34-8.82l27.83,19.6c18.93,13.33,34.51,29.62,45.98,49.68,15.68,27.43,13.93,58.64-2.76,85.24-28.68,45.75-87.52,77.96-133.94,106.98l-20.3,12.69,15.71,13.58,19.91,17.74c29.1,25.94,49.91,56.88,72.53,90.47,3.33-18.37,1.19-33.59,1.63-49.56,26.6-17.88,52.82-34.45,75.24-56.9l43.5-43.56c12.14-12.16,20.5-26.28,29.41-40.96,22-36.24,34.73-81.85,28.8-123.74ZM253.29,916.16c-10.16,7.93-20.78,13.48-32.35,17.55-22.81,6.97-46.94-4.77-54.1-27.6-6.6-21.05,4.33-41.61,24.88-48.85,32.19-11.35,62.82,16.19,90.38,36.43l-28.81,22.48Z"/>
      <path class="uuid-dea8a93a-8ddf-4b80-8e53-fed3604b87e3" d="M314.45,1085.92l-69.17-35.33c-26.91-13.74-50.88-31-73.86-50.39,18.29,8.47,39.05,12.05,60.17,9.42,40.33-5.02,72.02-28.79,102.54-54.31,4.45-3.72,8.68-4.3,13.19-.5,13.33,11.21,26.49,22.08,41.6,30.97,20.91,12.31,42.78,21.76,67.21,23.3,37.96,2.4,73.2-17.54,89.17-52.21,16.91-36.71,8.14-81-20.96-108.52-24.74-23.41-59.16-23.68-89.58-9.2-16.85,8.02-31.76,18.16-45.83,30.69l-80.92,72.09c-21.69,19.32-45.95,34.32-73.35,43.14-33.54,10.8-68.63,3.55-94.37-19.83-7.14-6.49-12.53-13.73-17.16-21.53-.79-1.39-1.56-2.79-2.31-4.2-30.59-57.18-9.58-120.64,31.78-167.4,23.29-26.33,49.48-48.01,76.76-70.15,2.04-1.66,5.25-4.62,4.82-6.53-.36-1.6-2.81-4.15-4.48-5.46-22.98-17.97-42.55-38.23-59.65-61.72l-38.66-53.1c-.98,18.89,2.56,35.05,5.47,52.58-19.07,15.79-37.18,31.37-53.24,49.74l-28.04,32.05c-84.34,107.24-68.51,246.46,19.24,345.84,27.93,31.63,59.76,57.58,97.25,77.1l85.52,44.52c33.94,17.67,64.95,39.74,88.88,70.16,25.21,32.05,41.86,69.36,50.03,108.93l13.49,65.31,3.46,53,2.4,30.68c69.71-101.66,68.83-226.36,1.55-328.83-24.47-37.27-63.38-70.1-102.94-90.31ZM486.25,857.87c18.22,6.72,30.47,26.12,27.1,45.86-2.79,16.29-15.97,28.21-31.83,32.46-31.36,3.81-57.62-21.06-81.98-40.25,25.58-23.36,52.14-45.13,86.71-38.07Z"/>
      <path class="uuid-dea8a93a-8ddf-4b80-8e53-fed3604b87e3" d="M457.5,474.69l46.58,18.51,96.68,37.74-55.32-44.19-37.02-37.33c-23.28-25.95-41.68-54.32-59.32-84.39-17.36-29.59-30.65-59.89-40.69-92.73l-24.1-78.79c-13.12-42.9-23.48-85.12-28.93-129.85l-4.6-37.72c-1.12-9.21-1.46-17.87-4.91-25.94-3.71,52.49-12.81,101.56-24.76,152.25-6.97,29.55-15.81,57.12-17.88,87.57-3.01,44.25,10.15,86.46,32.13,124.23,27.02,46.44,72.81,91.04,122.13,110.64Z"/>
      <path class="uuid-dea8a93a-8ddf-4b80-8e53-fed3604b87e3" d="M331.96,1320.6c-25.3-32.08-57.24-53.91-95.37-69.09l-76.89-30.61c-17.13-6.61-32.37-15.15-51.65-18.67,20.93,12.9,41.14,22.74,59.92,37.71,30.73,21.33,56.81,46.14,80.68,74.9,42.04,50.64,52.44,101.21,61.12,164.63l16.7,121.9,18.44,140.18c1.04,7.91.25,15.47,4.48,23l6.08-52.21,24.34-163.86c3.9-26.23,7.84-50.91,7.56-77.1-.61-56.37-21.07-107.25-55.42-150.8Z"/>
    </g>
  </g>
</svg>