<?xml version="1.0" encoding="UTF-8"?>
<svg id="uuid-82de685e-dd97-4372-b889-79ea44c844fb" data-name="Layer 2" xmlns="http://www.w3.org/2000/svg" width="690.44" height="1668.61" viewBox="0 0 690.44 1668.61">
  <defs>
    <style>
      .uuid-8e7ec1e5-a430-466a-bd2f-ecbba40d47c2 {
        fill: #7170f3;
      }
    </style>
  </defs>
  <g id="uuid-7e5d28d9-6aca-40a8-a8d2-d73a1660fda8" data-name="Layer 3">
    <g>
      <path class="uuid-8e7ec1e5-a430-466a-bd2f-ecbba40d47c2" d="M573.33,900.79c24.05-52.68-10.27-102.32-55.43-132.93l-25.02-16.96c-49.16-13.61-100.13,16.13-137.42,48.86l-62.39,54.76c-19.3,16.94-38.24,32.55-61.01,44.43-26.57,13.86-57.27,11.08-79.56-9.71-21.7-20.24-29.88-50.18-25.43-79.55,5.66-37.36,33.5-64.5,70.84-69.89,48.19-6.95,89.06,19.59,124.58,50.72,5.63,4.93,13.75,4.46,19.28-.57,40.58-32.96,75.8-54.79,132.16-51.76l-109.88-67.96c-28.1-17.38-51.19-38.58-76.05-60.36-29.82-29.41-54.31-62.91-70.56-101.96-38.12-91.65-22.92-196.38,37.96-275.2-8.78,59.87-7.03,117.47,8.56,174.62,10.84,39.74,29.25,74.24,57,104.5,9.67,10.79,19.41,21.56,31.28,30.2l57.77,42.04,170.05,108.01c79.51,50.5,134.72,130.6,99.54,224.86-9.25,24.77-20.02,51.03-39.02,70.06l-70.95,71.06c-16.77,16.8-38.46,26.31-57.55,40.75l-.16,35.69c-16.61-20.48-27.44-42.52-45.82-59.44l-48.54-44.68,60.07-37.39c35.72-22.23,78.5-54.56,95.68-92.19ZM247.9,872.86l37.83-29.34-29.25-21.71c-12.5-9.28-26.5-17.45-41.66-21.21-22.18-5.49-45.57,2.99-56.15,22.97-8.88,16.77-5.75,36.1,5.93,50.61,20.64,25.66,56,19.84,83.3-1.33Z"/>
      <path class="uuid-8e7ec1e5-a430-466a-bd2f-ecbba40d47c2" d="M327.39,899.03c-17.11,13.63-31.62,25.58-49.66,36.22-29.96,17.67-65.63,25.04-99.94,17.28-11.07-2.5-20.69-9.03-31.65-12.55,30.69,29.79,65.05,52.35,102.93,71.88l68.25,35.19c53.88,30.67,93.02,76.15,116.78,133.09,35.03,83.95,28.83,177.94-19.19,256.2l-6.3-66.13-15.32-76.67c-14.31-71.61-61.94-131.17-126.53-164.97l-90.73-47.47c-38.93-20.37-72.9-45.7-101.87-78.71-34.54-39.36-58.84-84.64-69.23-136.05-16.01-79.23,7.6-158.19,61.59-217.22,22.42-24.52,42.89-48.62,70.53-68.16l-4.08-35.35,42.52,56.05c13.03,17.17,29.41,30.37,46.58,44.34l-41.31,34.82c-15.04,12.67-28.01,26.58-41.43,41-19.96,24.83-35.49,51.69-41.65,83.16-7.61,38.91.91,78.45,27.31,108.27,23.75,26.82,60.38,37.76,95.26,29.75,31.19-7.16,57.82-22.4,81.48-43.38l85.46-75.73c18.27-16.19,38.4-29.42,61.64-36.02,28.77-8.16,57.1.87,74.69,24.42,25,33.45,25.61,79.35-1.78,111.61-40.69,47.92-107.87,31.34-155.17-6.4l-23.98-19.13c-2.91-2.32-11.63-2.2-15.21.66ZM420.55,874.02c11.24,8.8,24.29,13.81,37.24,17.39,27.63,5.1,53.29-13.43,55.63-40.59,2.24-26-17.69-49.74-45.14-50.13-32.06-.46-58.66,22.9-83.49,45.33l35.76,28Z"/>
      <path class="uuid-8e7ec1e5-a430-466a-bd2f-ecbba40d47c2" d="M531.93,437.1c7.73,8.05,16.98,13.02,25.22,23.09-38.02-16.1-77.3-27.99-115.57-46.52-59.94-29.01-103.69-83.22-127-144.64-15.61-41.14-14.48-82.46-3.67-124.33,12.37-47.91,21.96-93.99,30.34-144.7,6.49,40.78,12.47,81.09,24.64,121.26l30.37,100.31c11.97,39.53,28.44,75.76,50.53,110.62,13.93,21.98,26.69,44.1,44.67,62.81l40.47,42.1Z"/>
      <path class="uuid-8e7ec1e5-a430-466a-bd2f-ecbba40d47c2" d="M161.94,1182c-3.17-1.46-2.06-1.92.33-1.64l2.52.84,77.5,31.31c29,11.72,53.36,31.08,73.82,54.75,38.11,44.09,60.65,99.47,59.49,157.98l-3.68,46.19-29.47,197.17-34.91-254.29c-10.02-72.98-27.77-121.59-79.07-174.57-20.29-20.96-41.08-39.23-64.65-56.29l-1.88-1.45Z"/>
    </g>
  </g>
</svg>