<?xml version="1.0" encoding="UTF-8"?>
<svg id="uuid-07eec311-3f3b-427e-a672-d3f158bc6668" data-name="Layer 2" xmlns="http://www.w3.org/2000/svg" width="2622.47" height="1874.18" viewBox="0 0 2622.47 1874.18">
  <g id="uuid-0cd823c8-d14b-4534-b05d-1f76d0116f17" data-name="Layer 1">
    <g>
      <path d="M824.91,667.99h184.74v44.34h-129.32c-10.35,0-19.28.92-26.79,2.77-7.52,1.85-13.06,4.19-16.63,7.02-3.57,2.83-6.34,5.61-8.31,8.31-1.97,2.71-3.08,5.05-3.32,7.02l-.37,2.59v-72.05ZM1009.65,801.01h-110.84c-5.42,0-9.67,1.54-12.75,4.62s-4.75,6.22-4.99,9.42l-.74,4.43v25.87h129.32v44.34h-184.74v-77.59c0-10.35,1.91-19.34,5.73-26.97,3.82-7.63,8.44-13.17,13.86-16.63,5.42-3.45,10.84-6.15,16.26-8.13,5.41-1.97,9.97-3.08,13.67-3.32l5.91-.37h129.32v44.34Z"/>
      <path d="M1482.59,889.69v-88.68h-110.84v88.68h-55.42v-221.69h55.42v88.68h110.84v-89.42l55.42-54.68v277.12h-55.42Z"/>
      <path d="M1654.4,667.99h147.79v147.79c0,13.8-2.53,25.74-7.58,35.84-5.05,10.1-11.21,17.49-18.47,22.17-7.27,4.68-14.54,8.38-21.8,11.08-7.27,2.72-13.49,4.19-18.66,4.44l-7.39.37h-147.79v-147.8c0-13.79,2.52-25.74,7.58-35.84,5.05-10.1,11.21-17.49,18.47-22.17,7.26-4.68,14.53-8.37,21.8-11.09,7.26-2.71,13.49-4.18,18.66-4.43l7.39-.37ZM1672.87,712.33c-10.84,0-19.34,3.08-25.5,9.24-6.16,6.16-9.61,12.32-10.35,18.47l-1.11,9.24v96.07h73.9c10.84,0,19.34-3.08,25.5-9.24,6.15-6.16,9.61-12.31,10.35-18.47l1.11-9.24v-96.07h-73.9Z"/>
      <path d="M1844.68,667.99h184.74v44.34h-129.32c-10.35,0-19.28.92-26.79,2.77-7.52,1.85-13.06,4.19-16.63,7.02-3.57,2.83-6.34,5.61-8.31,8.31-1.97,2.71-3.08,5.05-3.32,7.02l-.37,2.59v-72.05ZM2029.43,801.01h-110.84c-5.42,0-9.67,1.54-12.75,4.62s-4.75,6.22-4.99,9.42l-.74,4.43v25.87h129.32v44.34h-184.74v-77.59c0-10.35,1.91-19.34,5.73-26.97,3.82-7.63,8.44-13.17,13.86-16.63,5.42-3.45,10.84-6.15,16.26-8.13,5.41-1.97,9.97-3.08,13.67-3.32l5.91-.37h129.32v44.34Z"/>
      <path d="M2071.92,745.59v-22.17l1.85-14.04c5.66-22.91,19.21-36.33,40.64-40.27,4.18-.74,8.5-1.11,12.93-1.11h129.32v44.34h-110.84c-5.42,0-9.67,1.54-12.75,4.62-3.08,3.08-4.75,6.22-4.99,9.42l-.74,4.44v7.39c0,6.16,1.54,10.78,4.62,13.86,3.08,3.08,6.22,4.62,9.42,4.62h59.86c10.35,0,19.34,1.91,26.97,5.73,7.63,3.82,13.18,8.44,16.63,13.86,3.45,5.42,6.15,10.84,8.13,16.26,1.97,5.42,3.08,9.97,3.32,13.67l.37,5.91v22.17c0,10.35-1.91,19.34-5.73,26.97-3.82,7.64-8.44,13.18-13.86,16.63-5.42,3.45-10.84,6.16-16.26,8.13-5.42,1.97-9.97,3.08-13.67,3.32l-5.91.37h-129.32v-44.34h110.85c5.41,0,9.66-1.72,12.74-5.17,3.08-3.45,4.74-6.89,4.99-10.35l.74-4.8v-5.54c0-5.41-1.54-9.66-4.62-12.74-3.08-3.08-6.22-4.74-9.42-4.99l-4.43-.74h-55.42c-10.35,0-19.34-1.91-26.97-5.73-7.64-3.81-13.18-8.43-16.63-13.86-3.45-5.41-6.16-10.84-8.13-16.26-1.97-5.42-3.08-9.98-3.32-13.67l-.37-5.91Z"/>
      <path d="M2333.66,667.46h65.84v65.85c0,6.15-1.13,11.47-3.37,15.97-2.25,4.5-4.99,7.79-8.23,9.88-3.24,2.08-6.48,3.73-9.71,4.94-3.24,1.21-6.01,1.86-8.31,1.97l-3.29.17h-65.84v-65.85c0-6.14,1.12-11.46,3.37-15.97,2.25-4.5,4.99-7.79,8.23-9.88,3.23-2.08,6.47-3.73,9.71-4.94,3.24-1.2,6.01-1.86,8.31-1.98l3.29-.16ZM2341.89,687.21c-4.83,0-8.62,1.37-11.36,4.11-2.74,2.74-4.28,5.49-4.61,8.23l-.49,4.11v42.8h32.92c4.83,0,8.61-1.37,11.36-4.12,2.74-2.74,4.28-5.49,4.61-8.23l.49-4.11v-42.8h-32.92Z"/>
      <path d="M2337.77,810.53h-37.04v-20.57h98.77v20.57h-37.04v78.52l-24.69-.33v-78.19Z"/>
      <path d="M2494.52,889.69v-39.51h-49.38v39.51h-24.69v-98.77h24.69v39.51h49.38v-43.41l24.69-20.79v123.46h-24.69Z"/>
      <path d="M830.62,967.09h66.28v266.01l-66.28,65.4v-331.42Z"/>
      <path d="M947.72,967.09h88.38l110.47,177.64v-178.52l66.28-65.4v331.42h-83.96l-114.89-177.2v177.2h-66.28v-265.13Z"/>
      <path d="M1263.67,967.09h220.94v53.03h-154.66c-12.37,0-23.13,1.1-32.26,3.32-9.13,2.21-15.76,5.01-19.88,8.4-4.13,3.39-7.37,6.7-9.72,9.94-2.36,3.25-3.69,6.04-3.98,8.4l-.44,3.09v-86.17ZM1484.61,1126.17h-132.57c-6.48,0-11.56,1.84-15.24,5.52-3.69,3.68-5.68,7.44-5.97,11.27l-.88,5.31v84.84l-66.28,65.4v-159.08c0-12.37,2.28-23.13,6.85-32.26,4.56-9.13,10.09-15.75,16.57-19.88,6.48-4.12,12.96-7.36,19.44-9.72,6.48-2.35,11.93-3.68,16.35-3.98l7.07-.44h154.66v53.03Z"/>
      <path d="M1535.42,967.09h66.28v266.01l-66.28,65.4v-331.42Z"/>
      <path d="M1652.52,967.09h88.38l110.47,177.64v-178.52l66.28-65.4v331.42h-83.96l-114.89-177.2v177.2h-66.28v-265.13Z"/>
      <path d="M1968.47,967.09h66.28v266.01l-66.28,65.4v-331.42Z"/>
      <path d="M2185,1022.32h-99.42v-55.23h265.13v55.23h-99.42v210.78l-66.28,65.4v-276.18Z"/>
      <path d="M2401.52,967.09h220.94v53.03h-154.66c-12.37,0-23.05,1.1-32.04,3.32-8.99,2.21-15.62,5.01-19.89,8.4-4.27,3.39-7.59,6.7-9.94,9.94-2.36,3.25-3.69,6.04-3.98,8.4l-.44,3.09v-86.17ZM2622.47,1126.17h-132.57c-6.48,0-11.56,1.84-15.24,5.52-3.69,3.68-5.68,7.44-5.97,11.27l-.88,5.31v30.93h154.66v53.03h-220.94v-92.8c0-12.37,2.28-23.13,6.85-32.26,4.56-9.13,10.09-15.75,16.57-19.88,6.48-4.12,12.96-7.36,19.44-9.72,6.48-2.35,11.93-3.68,16.35-3.98l7.07-.44h154.66v53.03Z"/>
      <path d="M1103.59,889.69l-17.05-8.52-17.05-17.05-8.52-17.05v-136.37l8.52-17.14,17.05-17.05,17.05-8.52h179.08l-51.23,51.23h-119.32v119.32h119.32l51.23,51.14h-179.08Z"/>
      <g>
        <rect x="2565.19" y="786.39" width="57.27" height="19.75"/>
        <rect x="2565.19" y="825.9" width="57.27" height="19.75"/>
        <rect x="2565.19" y="865.41" width="57.27" height="19.75"/>
        <path d="M2564.85,853.88v11.52h.34v-13.58s-.01.05-.01.08l-.33,1.98Z"/>
        <path d="M2562.21,826.07c-1.65.11-3.68.61-6.09,1.48-2.41.88-4.83,2.09-7.24,3.62-2.41,1.54-4.47,4.01-6.17,7.41-1.7,3.4-2.55,7.41-2.55,12.02v34.57h25.03v-19.75h-.34v-11.52l.33-1.98s.01-.05.01-.08v-25.93h-.34l-2.64.16Z"/>
        <path d="M2541.8,814.21c.88-1.21,2.11-2.44,3.7-3.7,1.59-1.26,4.06-2.31,7.41-3.13,3.35-.82,7.33-1.23,11.94-1.23h.34v-19.75h-25.03v32.1l.16-1.15c.11-.88.6-1.92,1.48-3.13Z"/>
      </g>
      <path d="M2420.29,664.02h82.9v19.9h-58.03c-4.64,0-8.68.41-12.1,1.24-3.43.83-5.91,1.88-7.46,3.15-1.55,1.27-2.76,2.52-3.65,3.73-.89,1.22-1.38,2.27-1.49,3.15l-.16,1.16v-32.33ZM2503.19,723.7h-49.74c-2.43,0-4.34.69-5.72,2.07-1.38,1.38-2.13,2.79-2.24,4.23l-.33,1.99v31.83l-24.87,24.54v-59.69c0-4.64.85-8.68,2.57-12.1,1.71-3.42,3.78-5.91,6.22-7.46,2.43-1.55,4.86-2.76,7.29-3.65,2.43-.88,4.48-1.38,6.14-1.49l2.65-.16h58.03v19.9Z"/>
    </g>
  </g>
  <g id="uuid-3e2aa515-3d65-4296-8a0d-ebea92fb1c1b" data-name="Layer 3">
    <g>
      <path d="M743.85,942.12c-5.75-40.6-25.31-75.25-52.63-105.2-22.09-24.22-47.83-42.9-75.72-60.52l-113.42-71.69c-67.32-42.55-134.5-80.16-179.07-149.57-16.94-26.37-27.1-55.19-34.34-85.81-13.5-57.05-14.11-115.57-4.07-173.19,1.03-5.93,4.98-11.56,2.57-17.55-87.98,97.29-103.7,243.21-36.48,354.23,16.1,26.59,34.47,50.53,57.12,71.77,30.12,28.25,60.97,52.97,96.25,74.61l88.83,54.47c-9.25-.21-18.65.62-28.05,2.6-19.76,4.16-37.16,12.23-54.64,22.31-15.53,9.77-29.63,20.27-43.76,31.98-3.71,3.08-8.29,2.74-11.83-.39-37.4-33.13-79.9-60.55-131.7-55.78-33.83,3.12-63.66,22.05-77.78,53.42-13.74,30.5-12.17,66.49,4.21,95.47,15.18,26.86,43,43.22,73.55,42.02,33.4-1.32,72.51-33.11,98.27-55.79l64.48-56.78c20.7-18.22,42.46-33.74,67.32-45.43,25.94-12.2,53.03-15.28,78.16-9.06l26.1,18.38c20.11,14.16,36.65,31.46,48.84,52.77,16.66,29.13,14.79,62.28-2.93,90.54-30.47,48.59-92.96,82.81-142.26,113.63l-21.56,13.48,16.69,14.42,21.14,18.85c30.91,27.55,53.01,60.41,77.04,96.09,3.53-19.51,1.26-35.68,1.73-52.64,28.26-18.99,56.1-36.59,79.92-60.44l46.21-46.26c12.9-12.91,21.77-27.92,31.24-43.51,23.36-38.5,36.89-86.93,30.59-131.43ZM271.14,975.2c-10.79,8.42-22.08,14.32-34.36,18.64-24.22,7.4-49.86-5.07-57.46-29.31-7.01-22.35,4.6-44.19,26.43-51.89,34.19-12.06,66.72,17.19,95.99,38.69l-30.6,23.88Z"/>
      <path d="M333.99,1153.39l-73.47-37.53c-27.4-13.99-51.93-31.43-75.41-50.98,19.2,8.7,40.91,12.35,63,9.6,42.83-5.33,76.49-30.58,108.91-57.68,4.73-3.95,9.22-4.56,14.01-.53,14.16,11.91,28.14,23.45,44.19,32.9,22.21,13.07,45.44,23.11,71.38,24.75,40.32,2.54,77.75-18.63,94.71-55.45,17.97-38.99,8.64-86.03-22.26-115.27-26.28-24.86-62.84-25.15-95.14-9.77-17.89,8.52-33.74,19.28-48.68,32.6l-85.95,76.57c-23.04,20.52-48.81,36.45-77.91,45.82-35.62,11.47-72.9,3.78-100.23-21.06-14.81-13.45-22.55-29.94-30.97-47.96-19.61-55.61,2.41-114.62,41.92-159.3,24.73-27.97,52.56-50.99,81.53-74.5,2.17-1.76,5.57-4.9,5.12-6.94-.38-1.7-2.98-4.41-4.76-5.8-24.41-19.09-45.19-40.6-63.36-65.56l-41.06-56.4c-1.04,20.06,2.72,37.22,5.81,55.85-20.25,16.77-39.49,33.32-56.55,52.83l-29.78,34.05c-89.58,113.9-72.76,261.77,20.44,367.32,29.66,33.6,63.48,61.16,103.29,81.89l90.83,47.29c36.05,18.77,68.99,42.21,94.4,74.52,26.78,34.04,44.46,73.67,53.14,115.69l14.33,69.37,3.68,56.29,2.54,32.58c74.04-107.98,73.1-240.42,1.65-349.25-25.99-39.59-67.32-74.46-109.33-95.92ZM518.58,913.29c19.35,7.14,32.37,27.75,28.78,48.71-2.96,17.3-16.96,29.96-33.81,34.48-33.31,4.04-61.2-22.37-87.07-42.75,27.17-24.81,55.38-47.93,92.1-40.43Z"/>
      <path d="M485.92,504.18l49.48,19.66,102.69,40.09-58.76-46.94-39.32-39.65c-24.72-27.56-44.27-57.69-63.01-89.63-18.44-31.43-32.55-63.61-43.22-98.49l-25.6-83.69c-13.94-45.56-24.94-90.41-30.73-137.92l-4.88-40.06c-1.19-9.79-1.55-18.98-5.21-27.55-3.95,55.76-13.6,107.86-26.29,161.71-7.4,31.39-16.79,60.67-18.99,93.01-3.2,47,10.78,91.83,34.13,131.95,28.7,49.32,77.33,96.7,129.72,117.51Z"/>
      <path d="M352.58,1402.64c-26.87-34.07-60.79-57.25-101.3-73.38l-81.66-32.51c-18.19-7.02-34.39-16.09-54.85-19.83,22.23,13.7,43.69,24.15,63.64,40.05,32.64,22.65,60.34,49.01,85.69,79.55,44.65,53.79,55.69,107.5,64.92,174.85l17.73,129.47,19.59,148.89c1.11,8.4.27,16.43,4.76,24.43l6.46-55.45,25.85-174.04c4.14-27.86,8.33-54.07,8.03-81.89-.65-59.87-22.38-113.91-58.86-160.17Z"/>
    </g>
  </g>
</svg>