<?xml version="1.0" encoding="UTF-8"?>
<svg id="uuid-8117f4a6-9f1d-4771-b85b-540ccfbb1e42" data-name="Layer 2" xmlns="http://www.w3.org/2000/svg" width="2618.5" height="1776" viewBox="0 0 2618.5 1776">
  <defs>
    <style>
      .uuid-f821a575-ea74-4286-afbc-05c19853e9db {
        fill: none;
      }

      .uuid-babdfac2-a7d5-4832-ac61-0667699f2f65 {
        fill: #f4f5ec;
      }

      .uuid-bd3a9ed0-4efa-49ce-a124-25804e735e39 {
        fill: #7170f3;
      }
    </style>
  </defs>
  <g id="uuid-0381237b-854c-4c0c-a8b0-75f7de8400ee" data-name="Layer 1">
    <g>
      <path class="uuid-bd3a9ed0-4efa-49ce-a124-25804e735e39" d="M610.23,958.76c25.6-56.07-10.93-108.9-58.99-141.49l-26.63-18.05c-52.32-14.49-106.57,17.16-146.26,52l-66.4,58.29c-20.55,18.04-40.7,34.65-64.94,47.29-28.28,14.75-60.95,11.79-84.68-10.33s-31.8-53.41-27.06-84.67c6.02-39.77,35.66-68.65,75.4-74.39,51.29-7.4,94.79,20.85,132.6,53.98,5.99,5.25,14.64,4.75,20.52-.61,43.2-35.08,80.68-58.31,140.67-55.09l-116.95-72.34c-29.91-18.5-54.48-41.06-80.94-64.25-31.74-31.3-57.81-66.96-75.1-108.52-40.57-97.55-24.39-209.02,40.4-292.91-9.35,63.72-7.48,125.03,9.11,185.86,11.54,42.3,31.13,79.01,60.67,111.23,10.29,11.49,20.66,22.95,33.3,32.14l61.49,44.74,180.99,114.96c84.63,53.75,143.39,139.01,105.95,239.33-9.84,26.37-21.3,54.31-41.53,74.57l-75.51,75.63c-17.85,17.88-40.94,28-61.25,43.37l-.17,37.98c-17.68-21.8-29.21-45.26-48.77-63.26l-51.67-47.56,63.93-39.8c38.02-23.66,83.56-58.07,101.84-98.12ZM263.86,929.04l40.26-31.23-31.13-23.1c-13.31-9.88-28.2-18.58-44.34-22.57-23.6-5.85-48.5,3.19-59.76,24.45-9.45,17.85-6.12,38.42,6.31,53.87,21.96,27.31,59.6,21.12,88.66-1.42Z"/>
      <path class="uuid-bd3a9ed0-4efa-49ce-a124-25804e735e39" d="M348.46,956.89c-18.21,14.51-33.66,27.23-52.85,38.55-31.89,18.81-69.85,26.65-106.38,18.39-11.78-2.66-22.02-9.61-33.69-13.35,32.67,31.71,69.24,55.72,109.55,76.5l72.64,37.45c57.34,32.64,99.01,81.06,124.3,141.66,37.29,89.36,30.68,189.39-20.42,272.69l-6.71-70.38-16.3-81.61c-15.23-76.22-65.92-139.61-134.67-175.58l-96.57-50.53c-41.43-21.68-77.59-48.64-108.42-83.78-36.76-41.9-62.62-90.09-73.68-144.8-17.04-84.33,8.09-168.37,65.56-231.2,23.86-26.1,45.65-51.75,75.07-72.55l-4.35-37.63,45.26,59.66c13.87,18.28,31.31,32.33,49.58,47.2l-43.97,37.06c-16,13.49-29.82,28.29-44.1,43.64-21.25,26.43-37.77,55.01-44.33,88.52-8.1,41.41.97,83.5,29.07,115.23,25.28,28.54,64.27,40.19,101.39,31.67,33.2-7.62,61.54-23.85,86.73-46.17l90.96-80.6c19.45-17.23,40.87-31.31,65.61-38.33,30.63-8.69,60.77.93,79.5,25.99,26.61,35.61,27.26,84.46-1.89,118.79-43.31,51-114.81,33.35-165.16-6.81l-25.53-20.36c-3.09-2.47-12.38-2.34-16.19.7ZM447.61,930.27c11.97,9.37,25.86,14.7,39.63,18.51,29.41,5.43,56.72-14.29,59.21-43.2,2.38-27.67-18.83-52.94-48.04-53.36-34.12-.49-62.43,24.37-88.86,48.25l38.06,29.8Z"/>
      <path class="uuid-bd3a9ed0-4efa-49ce-a124-25804e735e39" d="M566.16,465.23c8.23,8.56,18.08,13.85,26.85,24.57-40.46-17.13-82.27-29.79-123.01-49.51-63.8-30.88-110.36-88.57-135.17-153.95-16.62-43.78-15.41-87.77-3.91-132.33,13.17-50.99,23.37-100.04,32.29-154.01,6.91,43.4,13.28,86.31,26.22,129.06l32.33,106.77c12.74,42.08,30.28,80.64,53.78,117.74,14.82,23.4,28.41,46.94,47.54,66.85l43.08,44.81Z"/>
      <path class="uuid-bd3a9ed0-4efa-49ce-a124-25804e735e39" d="M172.36,1258.07c-3.37-1.55-2.19-2.04.35-1.75l2.68.9,82.49,33.33c30.86,12.47,56.79,33.08,78.57,58.27,40.57,46.93,64.55,105.88,63.32,168.15l-3.92,49.16-31.37,209.86-37.15-270.66c-10.66-77.68-29.56-129.41-84.16-185.81-21.6-22.3-43.73-41.76-68.81-59.91l-2-1.55Z"/>
    </g>
  </g>
  <g id="uuid-d53afb95-824a-47a0-82ef-eb736025de5f" data-name="Layer 3">
    <g>
      <path class="uuid-f821a575-ea74-4286-afbc-05c19853e9db" d="M1644.93,670.84c-5.89,5.89-9.22,11.81-9.92,17.59l-1.1,9.15v94.48h72.39c10.37,0,18.59-2.96,24.44-8.8,5.89-5.89,9.22-11.81,9.92-17.59l1.1-9.15v-94.48h-72.39c-10.38,0-18.6,2.96-24.44,8.8Z"/>
      <path class="uuid-f821a575-ea74-4286-afbc-05c19853e9db" d="M2328.08,640.59c-2.49,2.49-3.9,4.96-4.18,7.35l-.48,4.03v41.21h31.42c4.45,0,7.82-1.2,10.3-3.68,2.49-2.49,3.9-4.96,4.18-7.35l.48-4.03v-41.21h-31.42c-4.46,0-7.82,1.2-10.3,3.68Z"/>
      <path class="uuid-babdfac2-a7d5-4832-ac61-0667699f2f65" d="M875.34,767.44l.73-4.37c.29-3.53,2.11-7,5.42-10.3,3.35-3.36,8-5.06,13.81-5.06h109.34v-41.34h-127.82l-5.82.37c-3.54.24-8,1.33-13.25,3.24-5.31,1.93-10.68,4.62-15.97,7.99-5.16,3.29-9.64,8.68-13.32,16.03-3.7,7.39-5.57,16.24-5.57,26.3v76.09h181.74v-41.34h-129.32l.02-27.61Z"/>
      <path class="uuid-babdfac2-a7d5-4832-ac61-0667699f2f65" d="M832.47,669.16c3.73-2.96,9.52-5.41,17.2-7.3,7.59-1.87,16.73-2.81,27.15-2.81h127.82v-41.34h-181.74v61.48c.3-.46.63-.94.98-1.42,2.04-2.81,4.94-5.7,8.59-8.61Z"/>
      <polygon class="uuid-babdfac2-a7d5-4832-ac61-0667699f2f65" points="1480.58 836.39 1533 836.39 1533 564.36 1480.58 616.09 1480.58 706.38 1366.74 706.38 1366.74 617.7 1314.31 617.7 1314.31 836.39 1366.74 836.39 1366.74 747.71 1480.58 747.71 1480.58 836.39"/>
      <path class="uuid-babdfac2-a7d5-4832-ac61-0667699f2f65" d="M1750.31,831.68c7.13-2.66,14.37-6.34,21.51-10.94,7-4.51,13.04-11.77,17.95-21.58,4.92-9.85,7.42-21.68,7.42-35.17v-146.29h-146.26l-7.35.37c-5,.24-11.12,1.7-18.21,4.34-7.15,2.67-14.38,6.35-21.51,10.94-7.01,4.52-13.05,11.78-17.95,21.58-4.92,9.84-7.42,21.67-7.42,35.17v146.3h146.29l7.32-.37c5.01-.24,11.13-1.7,18.21-4.34ZM1706.31,795.06h-75.39v-97.75s1.12-9.24,1.12-9.24c.78-6.47,4.4-12.98,10.77-19.36,6.42-6.42,15.35-9.68,26.56-9.68h75.39v97.75s-1.12,9.24-1.12,9.24c-.77,6.47-4.4,12.98-10.77,19.36-6.42,6.42-15.36,9.68-26.56,9.68Z"/>
      <path class="uuid-babdfac2-a7d5-4832-ac61-0667699f2f65" d="M1895.12,767.44l.73-4.37c.29-3.53,2.11-7,5.42-10.3,3.35-3.36,8-5.06,13.81-5.06h109.34v-41.34h-127.82l-5.82.37c-3.54.24-8,1.33-13.25,3.24-5.31,1.93-10.68,4.62-15.97,7.99-5.16,3.29-9.64,8.68-13.32,16.03-3.7,7.39-5.57,16.24-5.57,26.3v76.09h181.74v-41.34h-129.32l.02-27.61Z"/>
      <path class="uuid-babdfac2-a7d5-4832-ac61-0667699f2f65" d="M1852.25,669.16c3.73-2.96,9.52-5.41,17.2-7.3,7.59-1.87,16.73-2.81,27.15-2.81h127.82v-41.34h-181.74v61.48c.3-.46.63-.94.98-1.42,2.04-2.81,4.94-5.7,8.59-8.61Z"/>
      <path class="uuid-babdfac2-a7d5-4832-ac61-0667699f2f65" d="M2559.2,802.51l.33-2c.13-1.62.97-3.21,2.49-4.72,1.54-1.54,3.67-2.32,6.33-2.32h50.15v-18.96h-58.62l-2.67.17c-1.62.11-3.67.61-6.08,1.48-2.43.89-4.9,2.12-7.32,3.66-2.37,1.51-4.42,3.98-6.11,7.35-1.69,3.39-2.55,7.45-2.55,12.06v34.9h83.35v-18.96h-59.31v-12.66Z"/>
      <path class="uuid-babdfac2-a7d5-4832-ac61-0667699f2f65" d="M2539.54,757.43c1.71-1.36,4.36-2.48,7.89-3.35,3.48-.86,7.67-1.29,12.45-1.29h58.62v-18.96h-83.35v28.2c.14-.21.29-.43.45-.65.94-1.29,2.26-2.62,3.94-3.95Z"/>
      <path class="uuid-babdfac2-a7d5-4832-ac61-0667699f2f65" d="M2232.76,824.8c5.16-3.28,9.64-8.68,13.32-16.04,3.7-7.38,5.57-16.23,5.57-26.3v-22.17l-.37-5.82c-.24-3.53-1.33-7.99-3.24-13.25-1.93-5.3-4.62-10.67-7.98-15.97-3.29-5.15-8.68-9.63-16.03-13.32-7.4-3.69-16.25-5.57-26.3-5.57h-59.86c-3.61,0-7.13-1.7-10.48-5.06-3.36-3.35-5.06-8.37-5.06-14.92l.02-7.63.73-4.37c.29-3.53,2.11-6.99,5.42-10.3,3.36-3.36,8-5.06,13.81-5.06h109.34v-41.34h-127.82c-4.32,0-8.59.37-12.67,1.08-20.95,3.86-33.86,16.64-39.43,39.08l-1.83,13.86v22.02l.37,5.86c.23,3.52,1.32,7.98,3.24,13.25,1.93,5.3,4.61,10.67,7.99,15.96,3.28,5.17,8.68,9.65,16.03,13.32,7.38,3.7,16.23,5.57,26.3,5.57h55.55l4.49.75c3.53.29,6.99,2.12,10.3,5.42,3.36,3.36,5.06,8,5.06,13.81l-.02,5.77-.73,4.74c-.29,3.75-2.09,7.51-5.36,11.18-3.36,3.76-8.03,5.67-13.86,5.67h-109.35v41.34h127.82l5.82-.37c3.53-.23,7.99-1.32,13.25-3.24,5.29-1.92,10.67-4.61,15.97-7.99Z"/>
      <path class="uuid-babdfac2-a7d5-4832-ac61-0667699f2f65" d="M2366.29,712.77c2.14-.1,4.79-.73,7.87-1.88,3.11-1.16,6.29-2.78,9.42-4.8,2.99-1.92,5.58-5.05,7.7-9.29,2.13-4.27,3.22-9.42,3.22-15.29v-64.35h-64.31l-3.26.16c-2.13.1-4.78.74-7.87,1.88-3.13,1.17-6.3,2.78-9.42,4.79-3,1.93-5.59,5.06-7.7,9.29-2.13,4.27-3.22,9.42-3.22,15.3v64.35h64.34l3.22-.17ZM2320.42,696.18v-44.48s.5-4.12.5-4.12c.37-3.07,2.06-6.14,5.04-9.11,3.02-3.02,7.2-4.55,12.42-4.55h34.42v44.48s-.5,4.12-.5,4.12c-.37,3.07-2.06,6.14-5.04,9.11-3.02,3.02-7.2,4.56-12.42,4.56h-34.42Z"/>
      <polygon class="uuid-babdfac2-a7d5-4832-ac61-0667699f2f65" points="2335.76 835.45 2357.46 835.74 2357.46 757.24 2394.49 757.24 2394.49 739.66 2298.73 739.66 2298.73 757.24 2335.76 757.24 2335.76 835.45"/>
      <polygon class="uuid-babdfac2-a7d5-4832-ac61-0667699f2f65" points="2492.51 836.39 2514.21 836.39 2514.21 717.66 2492.51 735.92 2492.51 780.13 2440.13 780.13 2440.13 740.63 2418.44 740.63 2418.44 836.39 2440.13 836.39 2440.13 796.89 2492.51 796.89 2492.51 836.39"/>
      <polygon class="uuid-babdfac2-a7d5-4832-ac61-0667699f2f65" points="828.61 1243.13 891.89 1180.68 891.89 916.8 828.61 916.8 828.61 1243.13"/>
      <polygon class="uuid-babdfac2-a7d5-4832-ac61-0667699f2f65" points="1161.2 898.62 1207.84 898.62 1207.84 852.6 1161.2 898.62"/>
      <polygon class="uuid-babdfac2-a7d5-4832-ac61-0667699f2f65" points="1144.56 915.04 1144.56 1098.19 1031.75 916.8 945.71 916.8 945.71 1178.93 1008.99 1178.93 1008.99 998.16 1126.2 1178.93 1207.84 1178.93 1207.84 898.62 1161.2 898.62 1144.56 915.04"/>
      <path class="uuid-babdfac2-a7d5-4832-ac61-0667699f2f65" d="M1284.38,1036.75c-6.22,3.96-11.62,10.46-16.03,19.29-4.44,8.87-6.69,19.5-6.69,31.59v155.49l63.28-62.44v-84.34l.89-5.36c.33-4.15,2.49-8.24,6.4-12.15,3.96-3.96,9.44-5.96,16.3-5.96h131.07v-50.03h-153.16l-6.98.44c-4.25.29-9.61,1.6-15.93,3.89-6.36,2.31-12.8,5.54-19.15,9.58Z"/>
      <path class="uuid-babdfac2-a7d5-4832-ac61-0667699f2f65" d="M1273.35,978.87c4.28-3.52,11.17-6.44,20.48-8.69,9.2-2.23,20.17-3.36,32.61-3.36h153.16v-50.03h-217.94v74.84c.5-.82,1.06-1.67,1.7-2.55,2.42-3.33,5.78-6.76,9.98-10.22Z"/>
      <polygon class="uuid-babdfac2-a7d5-4832-ac61-0667699f2f65" points="1533.41 1243.13 1596.7 1180.68 1596.7 916.8 1533.41 916.8 1533.41 1243.13"/>
      <polygon class="uuid-babdfac2-a7d5-4832-ac61-0667699f2f65" points="1866 898.62 1912.65 898.62 1912.65 852.6 1866 898.62"/>
      <polygon class="uuid-babdfac2-a7d5-4832-ac61-0667699f2f65" points="1849.36 915.04 1849.36 1098.19 1736.56 916.8 1650.52 916.8 1650.52 1178.93 1713.8 1178.93 1713.8 998.16 1831 1178.93 1912.65 1178.93 1912.65 898.62 1866 898.62 1849.36 915.04"/>
      <polygon class="uuid-babdfac2-a7d5-4832-ac61-0667699f2f65" points="1966.46 1243.13 2029.75 1180.68 2029.75 916.8 1966.46 916.8 1966.46 1243.13"/>
      <polygon class="uuid-babdfac2-a7d5-4832-ac61-0667699f2f65" points="2182.99 1243.13 2246.27 1180.68 2246.27 969.03 2345.7 969.03 2345.7 916.8 2083.57 916.8 2083.57 969.03 2182.99 969.03 2182.99 1243.13"/>
      <path class="uuid-babdfac2-a7d5-4832-ac61-0667699f2f65" d="M2422.24,1036.75c-6.22,3.96-11.62,10.46-16.04,19.29-4.44,8.87-6.69,19.5-6.69,31.59v91.3h217.94v-50.03h-154.66l.02-32.68.87-5.24c.33-4.15,2.49-8.24,6.4-12.15,3.96-3.96,9.44-5.96,16.3-5.96h131.07v-50.03h-153.16l-6.98.44c-4.25.29-9.62,1.6-15.93,3.89-6.36,2.31-12.8,5.54-19.15,9.58Z"/>
      <path class="uuid-babdfac2-a7d5-4832-ac61-0667699f2f65" d="M2411.44,978.86c4.43-3.51,11.31-6.43,20.46-8.68,9.05-2.23,19.95-3.36,32.4-3.36h153.16v-50.03h-217.94v74.84c.5-.82,1.06-1.67,1.71-2.55,2.42-3.32,5.86-6.77,10.22-10.23Z"/>
      <polygon class="uuid-babdfac2-a7d5-4832-ac61-0667699f2f65" points="1083.92 828.14 1100.43 836.39 1275.53 836.39 1227.3 788.25 1107.1 788.25 1107.1 665.93 1227.3 665.93 1275.53 617.7 1100.43 617.7 1083.92 625.96 1067.22 642.66 1058.96 659.26 1058.96 794.92 1067.22 811.44 1083.92 828.14"/>
      <rect class="uuid-babdfac2-a7d5-4832-ac61-0667699f2f65" x="2563.18" y="775.61" width="54.27" height="16.75"/>
      <rect class="uuid-babdfac2-a7d5-4832-ac61-0667699f2f65" x="2563.18" y="815.11" width="54.27" height="16.75"/>
      <path class="uuid-babdfac2-a7d5-4832-ac61-0667699f2f65" d="M2553.13,777.16c-2.3.84-4.64,2.01-6.95,3.48-2.17,1.39-4.07,3.68-5.64,6.81-1.59,3.17-2.39,6.99-2.39,11.35v33.07h22.03v-16.75h-.34l.02-13.27.32-1.97v-24.19l-1.38.09c-1.5.1-3.41.57-5.68,1.39Z"/>
      <path class="uuid-babdfac2-a7d5-4832-ac61-0667699f2f65" d="M2421.14,635.35c1.74-1.43,4.38-2.56,8.06-3.45,3.52-.85,7.71-1.29,12.46-1.29h56.53v-16.9h-79.9v24.33c.8-.89,1.75-1.8,2.85-2.7Z"/>
      <path class="uuid-babdfac2-a7d5-4832-ac61-0667699f2f65" d="M2449.94,670.41h48.24v-16.89h-56.53l-2.56.16c-1.5.1-3.43.57-5.71,1.41-2.32.84-4.67,2.02-7,3.5-2.19,1.39-4.1,3.7-5.68,6.87-1.6,3.2-2.41,7.04-2.41,11.43v56.1l21.87-21.58.02-31.45.32-1.93c.15-1.77,1.05-3.49,2.67-5.1,1.67-1.67,3.95-2.51,6.78-2.51Z"/>
    </g>
  </g>
</svg>