<?xml version="1.0" encoding="UTF-8"?>
<svg id="uuid-68402480-0263-49bf-9dc8-432c31ef2c68" data-name="Layer 2" xmlns="http://www.w3.org/2000/svg" width="2618.94" height="1776" viewBox="0 0 2618.94 1776">
  <defs>
    <style>
      .uuid-64e19512-0b45-482b-910b-f1ad9b1527e3 {
        fill: #7170f3;
      }
    </style>
  </defs>
  <g id="uuid-3e04a04d-1dee-4567-9bdd-90adacfcfc6c" data-name="Layer 1">
    <g>
      <path class="uuid-64e19512-0b45-482b-910b-f1ad9b1527e3" d="M610.23,958.76c25.6-56.07-10.93-108.9-58.99-141.49l-26.63-18.05c-52.32-14.49-106.57,17.16-146.26,52l-66.4,58.29c-20.55,18.04-40.7,34.65-64.94,47.29-28.28,14.75-60.95,11.79-84.68-10.33s-31.8-53.41-27.06-84.67c6.02-39.77,35.66-68.65,75.4-74.39,51.29-7.4,94.79,20.85,132.6,53.98,5.99,5.25,14.64,4.75,20.52-.61,43.2-35.08,80.68-58.31,140.67-55.09l-116.95-72.34c-29.91-18.5-54.48-41.06-80.94-64.25-31.74-31.3-57.81-66.96-75.1-108.52-40.57-97.55-24.39-209.02,40.4-292.91-9.35,63.72-7.48,125.03,9.11,185.86,11.54,42.3,31.13,79.01,60.67,111.23,10.29,11.49,20.66,22.95,33.3,32.14l61.49,44.74,180.99,114.96c84.63,53.75,143.39,139.01,105.95,239.33-9.84,26.37-21.3,54.31-41.53,74.57l-75.51,75.63c-17.85,17.88-40.94,28-61.25,43.37l-.17,37.98c-17.68-21.8-29.21-45.26-48.77-63.26l-51.67-47.56,63.93-39.8c38.02-23.66,83.56-58.07,101.84-98.12ZM263.86,929.04l40.26-31.23-31.13-23.1c-13.31-9.88-28.2-18.58-44.34-22.57-23.6-5.85-48.5,3.19-59.76,24.45-9.45,17.85-6.12,38.42,6.31,53.87,21.96,27.31,59.6,21.12,88.66-1.42Z"/>
      <path class="uuid-64e19512-0b45-482b-910b-f1ad9b1527e3" d="M348.46,956.89c-18.21,14.51-33.66,27.23-52.85,38.55-31.89,18.81-69.85,26.65-106.38,18.39-11.78-2.66-22.02-9.61-33.69-13.35,32.67,31.71,69.24,55.72,109.55,76.5l72.64,37.45c57.34,32.64,99.01,81.06,124.3,141.66,37.29,89.36,30.68,189.39-20.42,272.69l-6.71-70.38-16.3-81.61c-15.23-76.22-65.92-139.61-134.67-175.58l-96.57-50.53c-41.43-21.68-77.59-48.64-108.42-83.78-36.76-41.9-62.62-90.09-73.68-144.8-17.04-84.33,8.09-168.37,65.56-231.2,23.86-26.1,45.65-51.75,75.07-72.55l-4.35-37.63,45.26,59.66c13.87,18.28,31.31,32.33,49.58,47.2l-43.97,37.06c-16,13.49-29.82,28.29-44.1,43.64-21.25,26.43-37.77,55.01-44.33,88.52-8.1,41.41.97,83.5,29.07,115.23,25.28,28.54,64.27,40.19,101.39,31.67,33.2-7.62,61.54-23.85,86.73-46.17l90.96-80.6c19.45-17.23,40.87-31.31,65.61-38.33,30.63-8.69,60.77.93,79.5,25.99,26.61,35.61,27.26,84.46-1.89,118.79-43.31,51-114.81,33.35-165.16-6.81l-25.53-20.36c-3.09-2.47-12.38-2.34-16.19.7ZM447.61,930.27c11.97,9.37,25.86,14.7,39.63,18.51,29.41,5.43,56.72-14.29,59.21-43.2,2.38-27.67-18.83-52.94-48.04-53.36-34.12-.49-62.43,24.37-88.86,48.25l38.06,29.8Z"/>
      <path class="uuid-64e19512-0b45-482b-910b-f1ad9b1527e3" d="M566.16,465.23c8.23,8.56,18.08,13.85,26.85,24.57-40.46-17.13-82.27-29.79-123.01-49.51-63.8-30.88-110.36-88.57-135.17-153.95-16.62-43.78-15.41-87.77-3.91-132.33,13.17-50.99,23.37-100.04,32.29-154.01,6.91,43.4,13.28,86.31,26.22,129.06l32.33,106.77c12.74,42.08,30.28,80.64,53.78,117.74,14.82,23.4,28.41,46.94,47.54,66.85l43.08,44.81Z"/>
      <path class="uuid-64e19512-0b45-482b-910b-f1ad9b1527e3" d="M172.36,1258.07c-3.37-1.55-2.19-2.04.35-1.75l2.68.9,82.49,33.33c30.86,12.47,56.79,33.08,78.57,58.27,40.57,46.93,64.55,105.88,63.32,168.15l-3.92,49.16-31.37,209.86-37.15-270.66c-10.66-77.68-29.56-129.41-84.16-185.81-21.6-22.3-43.73-41.76-68.81-59.91l-2-1.55Z"/>
    </g>
  </g>
  <g id="uuid-9ca50fd5-0f8e-44f3-a0b3-35af17c92c2f" data-name="Layer 3">
    <g>
      <path class="uuid-64e19512-0b45-482b-910b-f1ad9b1527e3" d="M821.38,616.2h184.74v44.34h-129.32c-10.35,0-19.28.92-26.79,2.77-7.52,1.85-13.06,4.19-16.63,7.02-3.57,2.83-6.34,5.61-8.31,8.31-1.97,2.71-3.08,5.05-3.32,7.02l-.37,2.59v-72.05ZM1006.12,749.21h-110.84c-5.42,0-9.67,1.54-12.75,4.62s-4.75,6.22-4.99,9.42l-.74,4.43v25.87h129.32v44.34h-184.74v-77.59c0-10.35,1.91-19.34,5.73-26.97,3.82-7.63,8.44-13.17,13.86-16.63,5.42-3.45,10.84-6.15,16.26-8.13,5.41-1.97,9.97-3.08,13.67-3.32l5.91-.37h129.32v44.34Z"/>
      <path class="uuid-64e19512-0b45-482b-910b-f1ad9b1527e3" d="M1479.06,837.89v-88.68h-110.84v88.68h-55.42v-221.69h55.42v88.68h110.84v-89.42l55.42-54.68v277.12h-55.42Z"/>
      <path class="uuid-64e19512-0b45-482b-910b-f1ad9b1527e3" d="M1650.87,616.2h147.79v147.79c0,13.8-2.53,25.74-7.58,35.84-5.05,10.1-11.21,17.49-18.47,22.17-7.27,4.68-14.54,8.38-21.8,11.08-7.27,2.72-13.49,4.19-18.66,4.44l-7.39.37h-147.79v-147.8c0-13.79,2.52-25.74,7.58-35.84,5.05-10.1,11.21-17.49,18.47-22.17,7.26-4.68,14.53-8.37,21.8-11.09,7.26-2.71,13.49-4.18,18.66-4.43l7.39-.37ZM1669.35,660.54c-10.84,0-19.34,3.08-25.5,9.24-6.16,6.16-9.61,12.32-10.35,18.47l-1.11,9.24v96.07h73.9c10.84,0,19.34-3.08,25.5-9.24,6.15-6.16,9.61-12.31,10.35-18.47l1.11-9.24v-96.07h-73.9Z"/>
      <path class="uuid-64e19512-0b45-482b-910b-f1ad9b1527e3" d="M1841.16,616.2h184.74v44.34h-129.32c-10.35,0-19.28.92-26.79,2.77-7.52,1.85-13.06,4.19-16.63,7.02-3.57,2.83-6.34,5.61-8.31,8.31-1.97,2.71-3.08,5.05-3.32,7.02l-.37,2.59v-72.05ZM2025.9,749.21h-110.84c-5.42,0-9.67,1.54-12.75,4.62s-4.75,6.22-4.99,9.42l-.74,4.43v25.87h129.32v44.34h-184.74v-77.59c0-10.35,1.91-19.34,5.73-26.97,3.82-7.63,8.44-13.17,13.86-16.63,5.42-3.45,10.84-6.15,16.26-8.13,5.41-1.97,9.97-3.08,13.67-3.32l5.91-.37h129.32v44.34Z"/>
      <path class="uuid-64e19512-0b45-482b-910b-f1ad9b1527e3" d="M2068.39,693.79v-22.17l1.85-14.04c5.66-22.91,19.21-36.33,40.64-40.27,4.18-.74,8.5-1.11,12.93-1.11h129.32v44.34h-110.84c-5.42,0-9.67,1.54-12.75,4.62-3.08,3.08-4.75,6.22-4.99,9.42l-.74,4.44v7.39c0,6.16,1.54,10.78,4.62,13.86,3.08,3.08,6.22,4.62,9.42,4.62h59.86c10.35,0,19.34,1.91,26.97,5.73,7.63,3.82,13.18,8.44,16.63,13.86,3.45,5.42,6.15,10.84,8.13,16.26,1.97,5.42,3.08,9.97,3.32,13.67l.37,5.91v22.17c0,10.35-1.91,19.34-5.73,26.97-3.82,7.64-8.44,13.18-13.86,16.63-5.42,3.45-10.84,6.16-16.26,8.13-5.42,1.97-9.97,3.08-13.67,3.32l-5.91.37h-129.32v-44.34h110.85c5.41,0,9.66-1.72,12.74-5.17,3.08-3.45,4.74-6.89,4.99-10.35l.74-4.8v-5.54c0-5.41-1.54-9.66-4.62-12.74-3.08-3.08-6.22-4.74-9.42-4.99l-4.43-.74h-55.42c-10.35,0-19.34-1.91-26.97-5.73-7.64-3.81-13.18-8.43-16.63-13.86-3.45-5.41-6.16-10.84-8.13-16.26-1.97-5.42-3.08-9.98-3.32-13.67l-.37-5.91Z"/>
      <path class="uuid-64e19512-0b45-482b-910b-f1ad9b1527e3" d="M2330.13,615.66h65.84v65.85c0,6.15-1.13,11.47-3.37,15.97-2.25,4.5-4.99,7.79-8.23,9.88-3.24,2.08-6.48,3.73-9.71,4.94-3.24,1.21-6.01,1.86-8.31,1.97l-3.29.17h-65.84v-65.85c0-6.14,1.12-11.46,3.37-15.97,2.25-4.5,4.99-7.79,8.23-9.88,3.23-2.08,6.47-3.73,9.71-4.94,3.24-1.2,6.01-1.86,8.31-1.98l3.29-.16ZM2338.36,635.42c-4.83,0-8.62,1.37-11.36,4.11-2.74,2.74-4.28,5.49-4.61,8.23l-.49,4.11v42.8h32.92c4.83,0,8.61-1.37,11.36-4.12,2.74-2.74,4.28-5.49,4.61-8.23l.49-4.11v-42.8h-32.92Z"/>
      <path class="uuid-64e19512-0b45-482b-910b-f1ad9b1527e3" d="M2334.25,758.74h-37.04v-20.57h98.77v20.57h-37.04v78.52l-24.69-.33v-78.19Z"/>
      <path class="uuid-64e19512-0b45-482b-910b-f1ad9b1527e3" d="M2491,837.89v-39.51h-49.38v39.51h-24.69v-98.77h24.69v39.51h49.38v-43.41l24.69-20.79v123.46h-24.69Z"/>
      <path class="uuid-64e19512-0b45-482b-910b-f1ad9b1527e3" d="M827.09,915.3h66.28v266.01l-66.28,65.4v-331.42Z"/>
      <path class="uuid-64e19512-0b45-482b-910b-f1ad9b1527e3" d="M944.19,915.3h88.38l110.47,177.64v-178.52l66.28-65.4v331.42h-83.96l-114.89-177.2v177.2h-66.28v-265.13Z"/>
      <path class="uuid-64e19512-0b45-482b-910b-f1ad9b1527e3" d="M1260.14,915.3h220.94v53.03h-154.66c-12.37,0-23.13,1.1-32.26,3.32-9.13,2.21-15.76,5.01-19.88,8.4-4.13,3.39-7.37,6.7-9.72,9.94-2.36,3.25-3.69,6.04-3.98,8.4l-.44,3.09v-86.17ZM1481.08,1074.38h-132.57c-6.48,0-11.56,1.84-15.24,5.52-3.69,3.68-5.68,7.44-5.97,11.27l-.88,5.31v84.84l-66.28,65.4v-159.08c0-12.37,2.28-23.13,6.85-32.26,4.56-9.13,10.09-15.75,16.57-19.88,6.48-4.12,12.96-7.36,19.44-9.72,6.48-2.35,11.93-3.68,16.35-3.98l7.07-.44h154.66v53.03Z"/>
      <path class="uuid-64e19512-0b45-482b-910b-f1ad9b1527e3" d="M1531.9,915.3h66.28v266.01l-66.28,65.4v-331.42Z"/>
      <path class="uuid-64e19512-0b45-482b-910b-f1ad9b1527e3" d="M1649,915.3h88.38l110.47,177.64v-178.52l66.28-65.4v331.42h-83.96l-114.89-177.2v177.2h-66.28v-265.13Z"/>
      <path class="uuid-64e19512-0b45-482b-910b-f1ad9b1527e3" d="M1964.95,915.3h66.28v266.01l-66.28,65.4v-331.42Z"/>
      <path class="uuid-64e19512-0b45-482b-910b-f1ad9b1527e3" d="M2181.47,970.53h-99.42v-55.23h265.13v55.23h-99.42v210.78l-66.28,65.4v-276.18Z"/>
      <path class="uuid-64e19512-0b45-482b-910b-f1ad9b1527e3" d="M2398,915.3h220.94v53.03h-154.66c-12.37,0-23.05,1.1-32.04,3.32-8.99,2.21-15.62,5.01-19.89,8.4-4.27,3.39-7.59,6.7-9.94,9.94-2.36,3.25-3.69,6.04-3.98,8.4l-.44,3.09v-86.17ZM2618.94,1074.38h-132.57c-6.48,0-11.56,1.84-15.24,5.52-3.69,3.68-5.68,7.44-5.97,11.27l-.88,5.31v30.93h154.66v53.03h-220.94v-92.8c0-12.37,2.28-23.13,6.85-32.26,4.56-9.13,10.09-15.75,16.57-19.88,6.48-4.12,12.96-7.36,19.44-9.72,6.48-2.35,11.93-3.68,16.35-3.98l7.07-.44h154.66v53.03Z"/>
      <path class="uuid-64e19512-0b45-482b-910b-f1ad9b1527e3" d="M1100.06,837.89l-17.05-8.52-17.05-17.05-8.52-17.05v-136.37l8.52-17.14,17.05-17.05,17.05-8.52h179.08l-51.23,51.23h-119.32v119.32h119.32l51.23,51.14h-179.08Z"/>
      <g>
        <rect class="uuid-64e19512-0b45-482b-910b-f1ad9b1527e3" x="2561.67" y="734.6" width="57.27" height="19.75"/>
        <rect class="uuid-64e19512-0b45-482b-910b-f1ad9b1527e3" x="2561.67" y="774.11" width="57.27" height="19.75"/>
        <rect class="uuid-64e19512-0b45-482b-910b-f1ad9b1527e3" x="2561.67" y="813.61" width="57.27" height="19.75"/>
        <path class="uuid-64e19512-0b45-482b-910b-f1ad9b1527e3" d="M2561.32,802.09v11.52h.34v-13.58s-.01.05-.01.08l-.33,1.98Z"/>
        <path class="uuid-64e19512-0b45-482b-910b-f1ad9b1527e3" d="M2558.69,774.27c-1.65.11-3.68.61-6.09,1.48-2.41.88-4.83,2.09-7.24,3.62-2.41,1.54-4.47,4.01-6.17,7.41-1.7,3.4-2.55,7.41-2.55,12.02v34.57h25.03v-19.75h-.34v-11.52l.33-1.98s.01-.05.01-.08v-25.93h-.34l-2.64.16Z"/>
        <path class="uuid-64e19512-0b45-482b-910b-f1ad9b1527e3" d="M2538.28,762.42c.88-1.21,2.11-2.44,3.7-3.7,1.59-1.26,4.06-2.31,7.41-3.13,3.35-.82,7.33-1.23,11.94-1.23h.34v-19.75h-25.03v32.1l.16-1.15c.11-.88.6-1.92,1.48-3.13Z"/>
      </g>
      <path class="uuid-64e19512-0b45-482b-910b-f1ad9b1527e3" d="M2416.77,612.22h82.9v19.9h-58.03c-4.64,0-8.68.41-12.1,1.24-3.43.83-5.91,1.88-7.46,3.15-1.55,1.27-2.76,2.52-3.65,3.73-.89,1.22-1.38,2.27-1.49,3.15l-.16,1.16v-32.33ZM2499.67,671.91h-49.74c-2.43,0-4.34.69-5.72,2.07-1.38,1.38-2.13,2.79-2.24,4.23l-.33,1.99v31.83l-24.87,24.54v-59.69c0-4.64.85-8.68,2.57-12.1,1.71-3.42,3.78-5.91,6.22-7.46,2.43-1.55,4.86-2.76,7.29-3.65,2.43-.88,4.48-1.38,6.14-1.49l2.65-.16h58.03v19.9Z"/>
    </g>
  </g>
</svg>